<mxfile host="app.diagrams.net" modified="2023-10-01T05:23:49.705Z" agent="Mozilla/5.0 (Windows NT 10.0; Win64; x64) AppleWebKit/537.36 (KHTML, like Gecko) Chrome/109.0.0.0 Safari/537.36" etag="UeuGQCJwI4PjpUCpZxPs" version="21.6.5" type="device">
  <diagram name="Page-1" id="nPu5KJ9I6eH4xHGMFjUv">
    <mxGraphModel dx="1221" dy="565" grid="1" gridSize="10" guides="1" tooltips="1" connect="1" arrows="1" fold="1" page="1" pageScale="1" pageWidth="850" pageHeight="1100" math="0" shadow="0">
      <root>
        <mxCell id="0" />
        <mxCell id="1" parent="0" />
        <mxCell id="OJu6ANJz49_nvPRCXSA--1" value="raspberry pi" style="rounded=1;whiteSpace=wrap;html=1;labelPosition=center;verticalLabelPosition=top;align=center;verticalAlign=bottom;" vertex="1" parent="1">
          <mxGeometry x="50" y="210" width="120" height="130" as="geometry" />
        </mxCell>
        <mxCell id="OJu6ANJz49_nvPRCXSA--2" value="esp32&lt;br&gt;" style="rounded=1;whiteSpace=wrap;html=1;labelPosition=center;verticalLabelPosition=top;align=center;verticalAlign=bottom;" vertex="1" parent="1">
          <mxGeometry x="230" y="285" width="60" height="40" as="geometry" />
        </mxCell>
        <mxCell id="OJu6ANJz49_nvPRCXSA--3" value="mqtt server" style="shape=process;whiteSpace=wrap;html=1;backgroundOutline=1;" vertex="1" parent="1">
          <mxGeometry x="62.5" y="290" width="90" height="30" as="geometry" />
        </mxCell>
        <mxCell id="OJu6ANJz49_nvPRCXSA--7" value="moon-controller.py" style="rounded=1;whiteSpace=wrap;html=1;" vertex="1" parent="1">
          <mxGeometry x="60" y="230" width="95" height="40" as="geometry" />
        </mxCell>
        <mxCell id="OJu6ANJz49_nvPRCXSA--9" value="" style="endArrow=classic;html=1;rounded=0;entryX=1;entryY=0.5;entryDx=0;entryDy=0;exitX=0;exitY=0.5;exitDx=0;exitDy=0;" edge="1" parent="1" source="OJu6ANJz49_nvPRCXSA--2" target="OJu6ANJz49_nvPRCXSA--3">
          <mxGeometry width="50" height="50" relative="1" as="geometry">
            <mxPoint x="400" y="350" as="sourcePoint" />
            <mxPoint x="450" y="300" as="targetPoint" />
          </mxGeometry>
        </mxCell>
        <mxCell id="OJu6ANJz49_nvPRCXSA--10" value="" style="endArrow=classic;html=1;rounded=0;entryX=0.5;entryY=0;entryDx=0;entryDy=0;exitX=0.5;exitY=1;exitDx=0;exitDy=0;" edge="1" parent="1" source="OJu6ANJz49_nvPRCXSA--7" target="OJu6ANJz49_nvPRCXSA--3">
          <mxGeometry width="50" height="50" relative="1" as="geometry">
            <mxPoint x="400" y="350" as="sourcePoint" />
            <mxPoint x="450" y="300" as="targetPoint" />
          </mxGeometry>
        </mxCell>
        <mxCell id="OJu6ANJz49_nvPRCXSA--11" value="led.ino" style="rounded=1;whiteSpace=wrap;html=1;" vertex="1" parent="1">
          <mxGeometry x="235" y="295" width="50" height="20" as="geometry" />
        </mxCell>
        <mxCell id="OJu6ANJz49_nvPRCXSA--13" value="" style="shape=image;verticalLabelPosition=bottom;labelBackgroundColor=default;verticalAlign=top;aspect=fixed;imageAspect=0;image=data:image/png,iVBORw0KGgoAAAANSUhEUgAAAlgAAAJYCAYAAAC+ZpjcAAAACXBIWXMAAAsTAAALEwEAmpwYAAAgAElEQVR4Xuzdd3wUdf7H8deGdCBBCJ1AICR0AgZQQFBBBFE4ULGAHkXUEzmxop53tuPnead3InaxYgcsiCgqXUVRAoTQhFATRLpJKIG03x+TmcwOkGTDQnY37+fjsY/Mzve7AWVn573f73c+AyIiIiIiIiIiIiIiIiIiIiIiIiIiIiIiIiIiIiIiIiIiIiIiIiIiIiIiIiIiIiIiIiIiImeUy7lDRMQHVAPCgBAg1PYztLj9OJDn+HkMKChuFxGpVApYInK2hAOxxY+mxT8bA7WLH+fYtqOKX+OpHOBA8eOgbfs3IAPYUfzIAI4Wv0ZExOsUsETEm1wYwamt7dEGSADq2vr5gn3AZmBd8WN98c/tQKGtn4iIxxSwRKSiXEBLoBvQtfhnR6C6vVMpsoCdGEHHHGkyH38AR3CfAjS34eRThxFALUpGwcxHDMZIWS3K5yiQBvxse2xCoUtEPKCAJSLlFQqcB/QBemCEqnPcerg7DmzAGBn6lZKpuczinzklXc+KGkATjBG2JhjTlIkYo2ytMaYwTyUb+AVYCiwEfgRy3XqIiNgoYInIqVQDugAXY4SqCzBGiU5mB0YAWQGsxZhq2wrk2zv5sGpAHCXTmskYATKupIubYxhhawFG4PqZktE1EREFLBFxUwO4FBgMXAHUcW8G4DDwA7AMI1j8Aux26xE46mIELXMK9AJOvgD/D+BLYBYwF2PES0RERKqwOsDNwBcY015FjsdRYD7wEMbUYIjxsiopGCNo3Q98jRE2nf+/jhe3jQPqGy8TERGRqiACuAb4HGNqyxkStgHPAn0pfW1SVRcKXAg8jbEQ3vn/MR/4ChhB+Rf/i4iIiB9xARcBb2BMYTnDwHLgHxhXAmr5gOdcGOu3HgR+4sT/v4eAdzCmYIOKXyMiIiJ+qhYwAeOKPudJfx3G1F9zq7d4S1OMqcRUTvz/vhmYiFFCQkRERPxIF+B1jHpS9pP7Towprc5opOpsaQ/8C6OIqf3fIhdjVKsH+rcQERHxWUHAIOB7Thw1+Rr4E8ZCbakcQcBlwGyMwqX2f59fgKsxSkaIiIiIDwgB/gyswf2kfQD4L8atasS3xAFPAHtw/zfbiHFVpy4uEBERqSRhwF8xCn3aT9KbgFuByJKu4qPCgFEY6+Hs/4a7gPvQv6GIiMhZEwyM5cRgpWkm/2VO737HiUFrPEYQExERkTMgCLgeYxrJfhKeh3FLGy2UDgw9MAq/2v+NtwGj0Ro6ERERr7oQWIX7SfdHjGAlgakHsAj3f/P1wABbHxEREamApsBHuJ9kUzHuFagRq8DnAvph3PfR/h74HGhp6yciIiLlEIFRWd1ex2oncAOqBF4VuYCrgK2UvB+OYVyJWMPWT0RERE7hUmAL7ifS/0MnUjl58M7EqHEmIiIiJ1EbeAv3qaDPgHhbHxE4+dTxdKC+vZOIiEhV5gKuAXZTcrLcAQy0dxI5ib4Y9zY03zcHMOpqaX2eiIhUaTHAJ5ScIAuB54Ca9k4ipYgEngIKKHkfzQUa2TuJiIhUFf0wCkmaJ8UNQE+3HiLl1wXjClPz/bQPGOzWQ0REJICFYdwj0L5+5ml0/zk5fSHAY7iPZr2EbrkjIiIBrhWwkpKT3y6MkSwRb7oA2E7J+2w9kOTWQ0REJEAMAbIpOenNBuq69RDxnlq4X2l4BBjh1kNERMSPVQMmUXKiOw78FV3pJWeeC+Mehva6WZMxphJFRET8Vm3gK0pObjuB8916iJx5nXAvXrsI1cwSERE/1QpIp+Skthid1KTyOMN+BlqXJSIifqY3RtFH82T2PzQtI5WvGvA4Je/LHGCAWw8REREfNRzj/oFFQB7GGhgRX3I1kIvxHs0HbnFvFhER8R0u4CFKRgeyMG5lIuKLegB7KXm//hsIcushIiJSyYKAKZScrLYD7d16iPielsBGSt63bwHB9g4iIiKVpRrwOiUnqRVAQ7ceIr6rDvA9Je/f6UCoWw8REZGzLAT4kJKT0/dAtFsPEd9XHfiGkvfxbHTrJhERqSRhwCxKTkrfYpyoRPxROPA5Je/n+ej9LCIiZ1kI7uHqc/SNX/yfc0R2Hnpfi4jIWVINeJ+Sk9AMVONKAkc14G3cvzzo/S0iImeUC5iK+1oVnXwk0FTD/UbR7xfvExER8ToX8AwlJ50FQIRbD5HAEQp8Qcn7fSq6QbmIiJwBEyk52fwE1HRvFgk4ERhfJMz3/ePuzSIiIqfnakpOMquBc9ybRQJWDYwvFOb7/8/uzSIiIhVzPnAU4+SyE2ji3iwS8OoCmzGOgePARW6tIiIiHmoO7ME4seQAndybRaqMVsABjGPhQPFzERERj9UA1mKcUPKBy9ybRaqc3sAxjGMiHU2Vi4iIh1y4X6Z+m3uzSJU1nJLjYjbGjc5FRETK5U5KTiIvO9pEqrp/U3J8/N3RJiIiclIXAHkYJ4+fMe45KCIlgikp31AIDHBvFhERcVcf+A3jxLEPaOreLCLF6gOZlCx6j3NrFRERKeYCvsQ4YRQAl7g3i4hDd4yyDUXAd+h2OiIichLjKFlX8qh7k4icwl2UHDcPOtpERKSKaw0cwThJ/ISxxkREyhYEzMM4dvKAc92bRUSkqgoFUjBOEIeABPdmESlDE+AgxjG0Hoh0bxYRkaroMUqmOMY62kSkfK6j5Dia7GgTEZEqpi0li3RnYSx0F5GKeR/jWCoEujraRESkigjCuPKpCMgCGrs3i4iHYjDKmxQBK9BaRhGRKukWSqY0xjnaRKRibqTkuLrb0SYiIgGuAfAHxkngR3Q/NRFvcQHfYhxbh4Fm7s0iIhLI3sY4AeQBHRxtInJ64oGjGMfYTEebiIgEqGRKpjCecrSJiHc8RMlxdoGjTUREAowLWITxob8XiHZrFRFviQB2YBxrP6NpeBGRgPYnSr5V3+ZoExHvGk7J8Tbc0SYiIgEiFNiI8WG/Dl1CLnKmBQHLMI65HRijWiIiEmDsZRkuc7SJyJnRk5LjTmUbREQCTAiwDeNDfjGq2C5yNs3COPZ+R/cpFBEJKDdR8i26j6NNRM6sLpQcf3c62kRExE+FAFswPty/Q6NXIpVhDsYxuAutxRIRCQijKPn2fIl7k4icJedTchze4WgTERE/48K4YrAI+KH4uYhUjq8xjsUd6CpeERG/dikl35oHO9pE5OzqS8nxeJWjTURE/MgXGB/mm4FqjjYRObtcwBqMY3Kxo01ERPxEAiXflu9ytIlI5bDXo+vkaBMRET/wLMaH+CF0z0ERXxEJHMA4Nl93tImIiI+LBLIwPsSfd7SJSOX6N8axeRSo5WgTEREfZr/JbHtHm4hUrhaUHJ+3ONpERMSHzcX48E5xNoiIT1iCcYz+4GwQERHf1AgowPjwnuBoExHfMJaSUawER5uIiPig+zA+tPOAuo42EfEN0RhrsIqAfzraRETEB63G+NCe5WwQEZ/yPsaxug3dZUFExKfFUzLtcJ2jTUR8yxWUHK/nOtpERMSH3I3xYX0ciHK0iYhvicCoU1cEPOZoExERH2JemfS1s0FEfNLHGMdsqrNBRER8Q11Krh683dEmIr7pRkqmCZs72kRExAeMpuSDOtbRJiK+qTaQj3Hc3uloExERH/ABxof0SmeDiPi0RRjH7peO/SJ+Kci5Q8SPuYCLi7fn2xtExOeZx2wvIMTeICIilas1JdODlzvaRMS39aLk+D3P0SbidzSCJYHEHL0qBL63N4iIz/sZyC3eNo9lEb+lgCWB5KLinylAlm2/iPi+Y8DS4u2LbPtF/JIClgQKF9C7eHuRbb+I+I/FxT8vAKrZG0T8jQKWBIrGQIPi7R/tDSLiN34q/lkdSLQ3iPgbBSwJFPZ7mKlEg4h/WmHbTrZti/gdBSwJFOaH8UFgu71BRPzGPmBH8bZu/Cx+TQFLAoUZsFZgXOYtIv7JHMVSwBK/poAlgcIesETEf6UU/+yMzlHix/TmlUBQm5IF7qvtDSLid1KLf0YBTewNIv5EAUsCQbxtO922LSL+x34M249tEb+igCWBwP4hvNm2LSL+Zysl6ygVsMRvKWBJIDA/hHMwrkISEf+VC+ws3m5pbxDxJwpYEgjMgJWOriAUCQTmNKEClvgtBSwJBC2Kf2p6UCQwmMeyApb4LQUsCQSNin+a0woi4t/MY7mh214RP6KAJYGgbvHPvW57RcRfmcdyDDpPiZ/SG1f8XShQq3hbAUskMJjHchBGnTsRv6OAJf4uxra9x7YtIv7LfiybI9QifkUBS/xdPdu2RrBEAoP9WLYf4yJ+QwFL/F0d27ZqYIkEBvuxbB+lFvEbClji7yJs20dt2yLiv+zHcrhtW8RvKGCJv7N/+B6zbYuI/7Ify2G2bRG/oYAl/s7+4auAJRIYjtu2FbDELylgib/TCJZI4CkE8oq3Q+0NIv5CAUv8nUawRAKTeTxrBEv8kgKW+Dvz221h8UNEAoM5TagRLPFLClgSKIqcO0TEr+mYFr+mgCUiIiLiZQpYIiIiIl6mgCUiIiLiZQpYIiIiIl6mgCUiIiLiZQpYIiIiIl6mgCUiIiLiZQpYIiIiIl6mgCUiIiLiZQpYIiIiIl6mgCUiIiLiZQpYIiIiIl6mgCUiIiLiZQpYIiIiIl6mgCUiIiLiZQpYIiIiIl6mgCUiIiLiZQpYIiIiIl6mgCUiIiLiZQpYIiIiIl6mgCUiIiLiZQpYIiIiIl6mgCUiIiLiZQpYIiIiIl6mgCUiIiLiZQpYIiIiIl6mgCUiIiLiZQpYIiIiIl6mgCUiIiLiZQpYIiIiIl6mgCUiIiLiZQpYIiIiIl6mgCUiIiLiZQpYIiIiIl6mgCUiIiLiZQpYIiIiIl6mgCUiIiLiZcHOHSJyRrwK1ABWFD9WAgfdeoiISMBQwBI5884BRmMcb9fb9m/FCFpm6FoB7La1i4iIn1LAEjnzhnDyY6158eNK277fcA9cK4BMoMjWR0REfNzJPvRFxLuGATRt2pRnnnmG7du3s3nzZuuxbds28vLyzL6Nih9XmDuAfZwYurag0CUi4rMUsETOrHOAfgAXXHABoaGhJCQkkJCQYHXIz88nMzPTLXRt2bKF3Nxcs0sMcGnxw5TNidOLvwIFtj4iIlJJFLBEzixrevCCCy5wNBmCg4OJi4sjLi6Ovn37AlBYWMiuXbvYvHkz6enpbNmyhc2bN3Po0CHzZVHAhcUP0xEgFffQtQ44busjIiJngQKWyJllTQ/GxsY6204pKCiIxo0b07hxY3r37g1AUVERe/fuJT093RrlSk9P548//jBfFgl0L36YjgNpGGHLHPFaDRy19RERES9TwBI5c9ymB0+Xy+WiXr161KtXjx49elj7Dxw44Da1uHnzZvbs2WM2hwLJxQ9TAdABWG/bJyIiXqSAJXLmlDk96A21a9emdu3adO3a1dqXk5NzwpqunTt3ms3VgPuBUdYLRETEqxSwRM6cCk0PekPNmjXp1KkTnTp1svY99dRTLFmyxHw6AngE2G51EBERr9GtckTODK9OD3rD2rVrAWOqEePL1b329gpoCCQALmeDiEhVp4AlcmaclenB8srMzGT//v0AtG3b1tw9FqhnPqmAh4GNwH7ga+CfwCCggb2TiEhVpIAlcmZU2vTgyaSmpgLG6NWNN95o7g4H7jSfeCgUuKZ4+xyMGl1/Bz4HdgE7gJnAROAioGZxXxGRKkEBS8T7fG56cPXq1QA0a9aMdu3acd5555lNtwPR5hMPDABqA8THx9OuXTvCwsLs7bHAVcC/gYVAFrAGeAP4C3AuEGL1FhEJMFrkLuJ9PjU9WFRURFpaGgBJSUkADBs2jGXLloFRsHQc8C+zfzmNAKhTpw7PPPMMLpeLgoICMjIy2LRpExs3bmTjxo1s27aNwsJCMNZptSt+jC7+Hccw6nL9XPz4BUhHtwASkQCggCXifT41PZienk5OTg5QErBatWpFx44dzZGtu4BnMSrBl0cUMBigd+/e5qJ5qlWrZlWk79evHwDHjh1jy5YtVuDauHEjv//+u/l7wjixMOpBjKBlhq6fgd22dhERv6CAJeJdPjs9GBwcTPv27a39w4YNM9vqAmOA563G0l2JsX6Liy66yL3FISwsjDZt2tCmTRtrX3Z2Nps2bXIb6crKyjKbzfVc9vsu7sA9cK0AjMQoIuKjFLBEvMunpgehZIF7QkICERER1v6kpCQSEhLYtGkTwH3AK0Ce1eHURgDExsbSvHlzZ1uZoqKiSE5OJjnZKC5v3gLIPsqVnp7OsWPHzJc0LX5cXfy8COMei/bQlUb5/u4iImeFApaId/nU9GB+fj7r1q0DoGPHjm5tLpeLYcOG8cQTT4ARYK4Hprl1OlFDoA8Yo1fm9ODpMG8BVLt2berXr0+DBg1o0KABO3fuZN++feTk5HD8+HGKiqylWSdbz5WPUTR1OfAV8AOwGa3nEpFKooAl4j0+Nz24YcMGayTIXH9ld/755xMbG0tGRgbAA8C7QKF7LzfXUXz1cVnTg+Vx7Ngxli5dyvz581m7di35+fnOLgCEhIQQHh5uLaY3H3l51qBVMBBf/Li2eF8usBaYhxG4tJ5LRM4aBSwR7/HZ6cGwsDBat27taDVGj66++mqeeeYZgDbAn4BP3Xu5uQGgTZs21KtX8RqlOTk5vPvuuyxcuJCjR49a+8PDw2nQoIF1U+uoqCgiIiKoVq2a7dUl8vLyyMnJITs7m+zsbA4cOMDvv/9OdnY2GOvEnDe6zgCWUTK1mAIcsrWLiHiFApaId4RTXHjTV6YHoSRgtWnThpCQk5ed6t27N++99x579uwB+BvwGSefWmuNUb+qwqNXRUVFLFq0iNdee80MQQQFBREXF0diYiJNmjQhKKj85flCQkKsm13bHT58mN9//52dO3eydetW+3qu2OKHuZ6rkBPXc61B67lE5DQpYIl4xxUYxTeJjIxk8eLFJCQk0LBhQ6+sU6qIo0ePmgvYTzo9aAoODubKK6/k5ZdfBugC9MWYVnMaAUY5hoqM0BUUFPDcc88xf/58a1+jRo3o1asX0dEVqXV6atWrVyc+Pp74+HguuOACMjMzSU9PZ9u2bc5pyCCgffFjTPG+XGAl7qFL67lExCMKWCLe0djc2LBhAxs2bABKTvSJiYm0bNmShIQE6tate1ZC15o1a6wwUVrAAujXrx8ffPCBWS7hb5wYsFzAcIBzzz2XqKgoR3PZXn/9dbdwdd5555X59/KGoKAgmjZtStOmTcnNzWXNmjWsWbOG48ePAxATE0NQUJA5ggfGaOTJ6nPZA9cvaD2XiJRCAUvEO3517gBjqmr16tVWLSqA6OhoK2yZP51TXN5g/pk1atSgZcuWjlZ3oaGhDBkyhLfffhvgYuB84Cdbl/OBFlCx6cE1a9Ywe/Zs63lycvJZCVdO4eHhdOnShY4dO7J27VpWrFjBvn37iIiIYMyYMcTGxpKenn6q+lz9ix+m7ZSELa3nEhE3ClgiXvbTTz/hcrlITU21HqtXr7bWHGVlZZGSkkJKSor1mtq1a5OQkGA9WrZsWaFRIjtz/VWHDh3KNWJ22WWXMWPGDI4cOQLwIMaCd9MNYAQU230My+2TTz6xths0aGDVwKosoaGhdO7cmfj4eJYsWcJvv/3GG2+8Qbt27XjggQe47rrrTqjPZRZHta3nalb8GFb8XOu5RMSigCXiZS6Xi9jYWGJjY7niiisAKCwsZPv27axatcoKXWlpaWaY4cCBAyxbtsy8PyAA9erVc5tajI+Pp3r16lZ7abKysti2bRtwYv2rU6levTpXXHEF06dPB+NWOO0xAkIIxQv4u3fv7rypc5kKCwtZtWqV9bxt27a21soVFRXF5Zdfztq1a/nxxx9Zu3Yt9913H4899hiNGjWyrmY015yVcb/FU63nst9v8WdgC1rPJRLwFLBEzoKgoCCaN29O8+bNGTp0KGCcrNPT091Guuxrg/bs2cOePXv4/vvvrd/TuHFja4QrMTGR5s2bEx4ebrWb0tLSrMKcnkzFDR48mM8++8z8O9wP3Ihx25oYqNj04OHDh+31qoiJibG1Vj6Xy0X79u2pUaMGCxYs4Pfff+e+++7j0UcfJSEhwa1vee63uGnTJnbt2mW+JBzoUfwwHeDE+y3usbWLSABQwBKpJNWqVaNVq1a0atWKa665BjDqOm3cuNFtpGv9+vXWYvWdO3eyc+dOFi1aBBjhoFmzZtYoV0JCAnFxcdb0YO3atT0qGREdHU3//v3N9VLXAw9TfPVgdHS0R2HNFBERgcvlsgJfeaYrK0NcXByXXXYZc+bMITs7m0mTJjFlypQyr3A82f0Wc3JyrLB1kvVctTn1ei7zsQKt5xLxawpYIj4kJCSEdu3a0a5dO0aMGAEYIyTr1q1zG+nauHEjhYWFFBUVsW3bNrZt28a8ecaFf8HBwVZhznbt2lm/u7yGDh3Kl19+SUFBQTWMKwqHgFEv61QFP0sTHBxMixYt2Lx5MwD79u0rM7RUloYNG9KtWzd++uknDhw4wNNPP81jjz3mUW0ugJo1a5Z6v8Vyrudai/sieq3nEvEjClgiPi4sLIzOnTvTuXNna9+RI0dYs2aNW+gyA0x+fr414nXOOedYrymvunXrctFFF5klFUZR/DlRkelBU+/eva2/36+//kp8fLyjh+/o2LEjO3bs4LfffmPVqlV89dVXXH755c5uHjHvt+jheq4OxY+bin+N1nOJ+BEFLBE/FBkZSbdu3ejWrZu1Lzs7m7S0NFJTU5k0aRIAixcvZuTIkYSGhlr9yuPqq69mwYIFFBUVBYNRENS5HskTAwYM4JNPPiErK4vMzEz27t1L3bp1nd18Rvv27fntt98A+Pjjjxk4cKDXpza9uJ7LHrh+Qeu5RHyCApZIgIiKiqJnz5707NmTpKQkhg0bRlZWFt988411NWN5xcTEEB8fT3p6OmCMXp1OwIiMjOTee+/l4YcfpqioiHnz5nHVVVd5HPzOlqZNmxIeHk5ubi579+4lPT39tAJmeVVwPdeA4odpG+6L6LWeS6QSKGCJBKAePXqQnJxMSkoKH3/8MQMGDCA4uPyHe3h4OAcPHrSef/fddxQWFlpXMFakMGqnTp249tpr+fDDD8nJyWHhwoVccsklFVrXdaYFBQURFRVFbm4uANu2bTsrAetkKrCeK674cbL1XOZjLVrPJXJGlf8TV0T8hsvl4o477mDkyJHs27ePxYsX07dvX2e3UjVs2JD9+/cDkJGRwYcffmi1VbQw6vXXX092djZffvkl27dv56uvvuLSSy/1yZEs+z0LbeGl0nlpPddRStZzmaNdWs8l4kUVH/MX8Q13As8ABVTuF4YBwFcAy5Yt86g0wplSVFTEJZdcwvr162ncuDEvvviiR1fD5efnc+2111p1uUJCQtzqWTmVtzBqUVERM2fOZNq0aYCxEP+SSy6p0IL8M+XYsWNMmzbNKi3x97//vUIV7CtTGeu5TsbX1nPtA+oA/wCMRYUifkQBS/ydAlYpPv/8c/7yl78AcP/991sjHuX1ww8/8OSTTwIwefJkOnbseEJh1NJCV2mFUZcsWcKLL77I4cOHCQoKsq6U9CQEnin2WxmFh4czbdo0IiIiHL38T05Ojtsol2M918lswz10rQAO2zucQQpY4tcUsMTfKWCVoqCggF69erFt2zZatGjB5MmTPVqsXlRUxJgxY9i3bx+JiYksWLDALQDl5eWxYcMGUlNTreKoGzZsoKCgwPZbSrhcLpo2bWpNLTZo0ICvv/6apUuXAsZoVpcuXYiLi/Po7+lN27dv55tvvrFGr6677jqrJlmgOdl6rvT0dGvt2UnY13NNxBj1OlMUsMSvVc4nmIj3KGCV4YMPPuCee+4B4JFHHqFLly6OHqWbP38+kydPBuCNN95gwAD7BWsnys3NZe3ataxevdoKXZs2bbICi1NwcDAxMTHk5ORw+LAxOFKrVi06depEy5Ytz+qI1pYtW1i4cKEVENu0acMTTzzh0QUC/q6wsJCMjAy3US7bei67BMC4zPTMUMASv6aAJf5OAasMeXl5nH/++ezatYs2bdrw73//26PRofz8fEaOHEl2djZJSUl8+eWXHr0ejPsRmjW6zNGubdu2ObudIDw8nBYtWtCyZUvq16/v8Z9bXocPH+aHH35w+zu1b9+ev//97yddR1bVmOu5Hn/8cQ4dsio+JAKbbN28TQFL/FplnpBE5CwICQlh3Lhx/OMf/2D9+vWsXbuW9u3bO7udUnBwMNdffz2vvPIKqampfPfdd/Tu3dvZrVTVq1fn/PPP5/zzz7f2ZWVlsXr1arfQtXPnTturjNGwdevWsW7dOmrUqEHTpk1p0KABDRs2PO3gU1BQwI4dO9i4cSMZGRnWCE14eDgjR45k4MCBZ3X0zJeFhYURFxfH0aNH7bvPTNoVCRAKWCJVwPDhw5k8eTL79+9n+vTpHgUsgEsvvZR33nmHI0eOMGXKFI8D1slER0fTq1cvevXqZe3bt2+f29TiqlWr2Lt3LwCHDh2ywhYY9aHq1q1LVFQUNWvWJCoqiho1ahASEkJQUBDVqlUjKCiI48ePk5ubS25uLocPH2bv3r3s2bOHffv2ua0Vq169OhdeeCHDhg0jJibG2i+GNWvWONfWKWCJlEIBS6QKiIiI4JZbbuFf//oXK1euZNOmTR4VzgwNDeXqq69m2rRpLF26lOXLl3u8lqs8YmJi6NOnD3369AGMRdi7d+8mNTWVn3/+me+//55NmzaRm5tLTk4OOTk5jt/gmejoaFq3bs2FF17Ieeed55P1uHxFamqqc5cClkgpFLBEqoiRI0fy/PPPk5OTw8yZM3nwwQedXUp1xRVX8NFHH3Hs2DGmTJli1bE6k1wuFw0aNKBBgwb0798fMEJXRkYGK1as4LvvvmPlypVs3bq11GKgISEh1KxZk5iYGBo1akRSUkb4sbgAACAASURBVBJJSUnExMScsXVdgUYBS8QzClgiVURUVBSjR49mypQpLF26lIyMDI8W40dERDB48GBmzJjBvHnzWLt2Le3atXN2O+PMUg9NmzZlyJAhgHHl29atW93Wc61Zs8ZaM5SXl8eBAwc4cOAAGzduZNGiRTRo0MCqz9WyZUvi4+OJjIy0/1FSLCsri+3btzt3K2CJlEIHiPg7XUXogf3799O1a1dyc3O5+OKLufvuu51dSpWTk8Of//xn8vPzGTx4MC+//LKzi8/Iz88nPT3dCl2pqaUXRnW5XFZhVLM4aosWLQgLC3N2rXKWLFnCU0895dzdDjAWxJ0ZuopQ/FplnpBE5CyrU6cON9xwA6+99hqLFy9mxIgR1K9f39ntlGrWrEn//v2ZM2cOs2fPZuLEibRo0cLZzScEBwfTunVrWrduzbXXXguUXhi1qKiIzMxMMjMzWbhwIWDc9NleGLVly5bExcUREhJi/6MCnjk9WKtWLf744w9zt76gi5RCB4j4O41geei3336je/fu5OXlcdlllzFu3Dhnl1IdOHCA0aNHU1hYyHXXXcf//vc/Zxe/UpHCqM2bN7fuuZiQkEBsbCzVqlVzdg0YY8eOZffu3SQnJ1u3EMK4efQaWzdv0wiW+LXKPCGJSCVo1KgRV199NR988AHffvst1113HbVr13Z2O6XatWtz4YUXsnDhQmbOnMk999xD48aNnd38Rnh4OMnJySQnJ1v7SiuMmp+fz6ZNm9i0aRNfffUVYFxlGR8f7xa6GjduHBAL6H///Xd2794NQMuWLe0By///40TOIAUskSpo/PjxfPTRR+Tn5/PZZ58xZswYZ5dSDR8+nEWLFpGfn89LL73EpEmBNcDgaWHU48ePs379etavX2/1j4iIoGXLlm6h60xWoz9TVq9eDRhr1OLj4+1N/vUfInKWKWCJVEHNmzdn0KBBzJo1i6+++ophw4ZRs2ZNZ7dTatCgAd26dWPZsmW899573HnnnQFfnLM8hVFTU1PZs2cPAEePHiUtLY20tDSrf82aNa3AZf6sU6eOT4cuc/1VkyZNiIqKsjf57l9axAcoYIlUUXfccQezZs0iNzeX2bNnM3z4cGeXUo0cOZJly5Zx7NgxXn31Vf72t785uwS80gqj2kPXwYMHAeMqzJUrV7Jy5Urrd9SqVcttEX1iYiLR0dFWe2UqKiqyAlZSUpIzCCpgiZRCAUukimrTpg39+vXj22+/Zfbs2QwdOpSIiAhnt1OKjY2lY8eOrF69mrfeeovx48c7RziqnNIKo5phKzU1ldWrV1tV6P/44w9++eUXfvnlF+v3xMTEWPW5zOBVo0YNq/1s2b59O1lZWYARsBwUsERKoYAlUoXdcccdfPvttxw6dIi5c+cydOhQZ5dSjRo1irvvvptDhw7x5ptvMmHCBGeXKs9eGHXQoEFA2YVR9+3bx759+1i6dKn1exo2bOg2tRgfH+9RIK4Ic/QqKCiIDh06sGPHDnuzApZIKRSwRKqw5ORkevbsyQ8//MCnn37K5Zdf7tH9+MyprU2bNjF16lRuvvlmVUMvh6CgIOLj44mPj+fKK68Eyi6MumvXLnbt2sWSJUsAI7g1adLELXS1aNHCo3+/spgBKz4+nurVqztaFbBESqOAJVLFTZgwgR9++IGDBw8yb948Bg4c6OxSqjFjxvDggw9y4MAB3nvvPW6++WZnFymH0gqj2tdz2QujZmRkkJGRwYIFCwAjuDVr1sxtTVdcXBzBwZ5/1BcUFLBmjVHmypwe1BoskfLz/KgTkYDSs2dPOnfuzMqVK/n444+59NJLPToht2vXjtjYWDIyMnjppZcYOXKkV0dRqrKQkBA6dOhAhw4duPHGG4HSC6OaU49bt27lm2++AUoKo9pDV3kKo27cuNGaslTAEvFc+T9FRSQguVwu7rjjDkaPHs2ePXtYsmSJdVVcebhcLkaPHs3jjz/O77//zsyZMz2+IlHK72SFUQ8dOsSaNWus9VypqaknLYxqCgsLo0WLFlboSkhIoFGjRm4BypweDA0NpW3bttZ+GwUskVIoYIkI/fr1o3Xr1mzYsIEZM2Zw8cUXO0crStWlSxfq1avHnj17eP7557nmmms8GgWT01OjRg2PCqMeO3bshMKokZGRboVRzasaW7dubY1IagRLpPz0CSgiBAUF8de//pXbb7+dzMxMfvzxR3r06OHsdkoul4uRI0fy1FNPsW3bNr744guGDBni7CZnkaeFUY8cOcLq1autyu0m+301PQndIlVdkHOHiFRNgwYNolmzZgBMnz79lDc7PpULLriAWrVqATBlyhQKCwsdPaSymYVR7777bt5++21WrlzJihUrrBIbF110Eeecc47ba1q1auX23EZpS6QUClgiAhiLocePHw/A5s2b3aqNl0dQUBA33HADABs2bGDevHmOHuJrzMKo/fv35/777+f9999nzZo1vP7661af+vXru/W3UcASKYUClohYhg0bZp1QZ8yY4WgtW9++fa16Sc8++6zHo2BS+czCqCejgCVSfgpYImIJDQ3ltttuA2DNmjWsW7fO0aN0wcHBVg2nlStX8sMPPzh6iD9TwBIpPwUsEXFzww03WOtwpk+f7mgt28CBAwkLCwOMtVgSsBSwREqhgCUibiIjI61q7CkpKWzZssXRo3RhYWHWPQ2///57UlJSHD3EX2kES6T8FLBE5ASjR4+mRo0aQMVGsYYMGUJISAgAzz33nKNV/JUClkj5KWCJyAmio6MZNWoUAEuXLiUzM9O9QxmqV6/OZZddBsA333zjVtBSAoYClkgpFLBE5KRuvvlmwsLCKCoqYubMmc7mMl177bXW/e40ihUYNIIlUn4KWCJyUnXr1rXuKbho0SKr4nd5RUVFcfHFFwPw+eefW/fGE/+lgCVSfgpYInJK48aNIzg4mIKCAj755BNnc5lGjBiBy+WisLCQ559/3tksfkYBS6T8FLBE5JQaN27MVVddBRhrqQ4ePOjoUbqYmBi6d+8OGIVLd+3a5eghfkwBS6QUClgiUqrx48fjcrnIy8tj1qxZzuYymYvl8/LyePnll90bxa9oBEuk/BSwRKRU8fHxDBo0CIA5c+Zw6NAhR4/SNWzYkM6dOwPwzjvvsH//fkcP8ReOgCUipVDAEpEy/fWvfwUgNzeXL774wtFatjFjxgDG61977TVHq/gppS2RUihgiUiZ2rVrR9++fQHjisDc3FxHj9LFxcXRunVrAN58802ys7MdPcQfaIpQpPwUsESkXO644w4AcnJymDt3rqO1bDfddBMA2dnZvP32245W8QcKWCLlp4AlIuXStWtX64rATz/9lLy8PEeP0rVu3Zrw8HAAXn31VY4ePeroIX5GAUukFApYIlJu5ijWgQMHmD9/vqO1dEVFRdb2/v37+eCDD2yt4ocUsERKoYAlIuXWu3dvOnbsCMDMmTMpKChw9Di1jIwMt7VbL7zwgsejYFK5NEUoUn4KWCJSbi6XiwkTJgCwe/duvvvuO0ePU9uwYYPb8127dvHxxx+77RPfpoAlUn4KWCLikf79+5OQkAAY1dntU3+lMQNWs2bNrCsKn3vuOY9GwaRyKWCJlJ8Cloh4JCgoyKqLtWPHDpYtW+bocXLr168HoEuXLtZarq1btzJnzhx7N/EfClgipVDAEhGPDRkyhNjYWACmT59e5ihWTk4OmZmZACQnJ3PFFVcQFxcHwJQpU8p8vfgGjWCJlJ8Cloh4LDg4mNtvvx2ATZs2kZqa6ujhbuPGjdZ2165d3V6/bt06j69IlMqhgCVSfgpYIlIh1157LfXr1weMUazSmNODkZGRtGrVCoBhw4bRoEEDAJ599lmNYvkfBSyRUihgiUiFhIWFceuttwKQlpZmhaiTMRe4n3vuuQQHBwMQGhrKbbfdBkBKSgo//vij1V98k0awRMpPAUtEKuzGG28kOjoaMK4oPJnCwkJ+/fVXwFh/ZTdixAjOOeccwFiLJb7NEbBEpBQKWCJSYdWrV2fs2LEA/PLLL2zdutXRw7jS0Cww6gxYkZGR3HzzzQAsWbKEVatWubWLT1PaEimFApaInJabbrqJ6tWrAycfxbJPHToDFsCYMWOoUaMGoFEsX6cpQpHyU8ASkdNSq1YtRo4cCcD333/Pzp073drN9Vfx8fHWdKBdVFQUo0aNAmDu3LnWdKL4HgUskfJTwBIJYEePHnXuOiNuvvlmQkNDKSoqOuH2N2bA6tKli9t+u5tvvpmwsDAAnn/+eUer+AoFLJHyU8ASCWAPPvggnTt3ZtSoUTzzzDMsWLCA/fv3O7udtvr16zN8+HAAFixYwN69ewHIysrit99+A9wDVl5eHgcOHGDHjh1s2LCBzMxM+vbtC8Bnn33G9u3brb7isxSwREphXC8tIgFr9+7dfPPNN3zzzTfWviZNmpCUlESnTp1ISkqiY8eOREVF2V7ludtuu4133nmHgoICPv30U2655Ra36b4XXniB//73v2RnZ3PkyBHbK90VFBTw4osv8u9//9vZJJVMI1gi5aeAJVJFhIaGcvz4cQAyMzPJzMx0uw9g8+bNSUpKsoJX+/btrcXr5REbG8uVV17JjBkz+Prrr7n22mut6UGXy0V+fj4xMTEkJCQQHR1NrVq1qFmzJtWrVycyMpLIyEg+/fRTli1bxocffsjdd99tFTIV36CAJVJ+Clgi3mHMb/moli1b8vTTT5ORkUF6ejpff/21FX5MW7duZevWrXz22WeAcTJNSEiwRrmSkpJo166dtVbqZMaPH8/MmTM5fvw4s2bNsv6MSy65hC+++MLR+0RXXHEFHTp0IC8vj5dffplHHnnE2UV8hwKWSCkUsEQqLgj4G3APUMvR5nOqVatGXFwccXFx5OTksGHDBkJDQ7niiitYvXo1mZmZVr0qgKKiIjZu3MjGjRutW+EEBwfTqlUrt9DVunVrQkJCAEhISGDgwIHMmTOHL774gsLCQgDOP/986/eWJiEhgauuuoqZM2cybdo07rjjjpNeeSiVQyNYIuWngCVSMROAfwI1nQ3+5Pjx43zyyScEBweTmJhI27ZtSUhIICIigsOHD5ORkcGKFSv49ddfKSoqIj8/n7Vr17J27Vree+89wJh6bNeunRW4Lr30UubMmeN2BWP37t2t7bJMnDiRmTNncvToUV5//XXuvfdeZxepJApYIuWngCXimRHAs0Adc0eDBg3o06cP77//fkkvPxEaGsrixYvLnPrLyclh1apVpKSkWI/NmzcDRkhbuXIlK1eudLzK4HK5Si3R4JSUlMSAAQOYO3cur732Grfeeis1a/p1jg1UClgipVDAEimf/sBUINbcERMTw5133skNN9zADz/84JcBKyQkhHPPPde5+wQ1a9akV69e9OrVy9p38OBBVq5cSUpKCsuXLyclJYWMjAzbqwznnXeedb/C8nrggQeYO3cu2dnZvPPOO4wbN87ZRSqBYwQrwv5ERNwpYImUrivwDtDK3FGzZk3GjRvH2LFjPbrKLtCcc8459OnThz59+lj79u7da41w/fjjj6SmppKRkcHx48cJDQ21vbp03bt3p3fv3ixZsoRXXnmFMWPGEB4e7uwmZ5kjYL0EtAAeAozFdiJiUcASObnawCzgAnNHWFgYN910E7fffrsWXp9C3bp1GTBgAAMGDACMhfI7d+4kNzfXo4AFcP/997NkyRL27t3LBx98wOjRo51d5CxzBKxqwAPAX4C/Au/aG0WqOgUskRPdCzwBhIBx5dzw4cO56667VJfJQy6XiyZNmjh3l0vfvn1JTk4mJSWFhx56iJ9++slaSN+hQ4fTLowqp6d27docOHAAjCto38EYyRoAbLf3E6mqFLBESrQCvsSY9gCM+k2PP/44cXFxVic5O1wuF/fffz/XXHMNALNnz2b27NlWe4sWLaxyEZ06daJdu3ZERkZa7eJ99hGsBx98kKysLJ599llycnIAWgObgf9glC8RqdIUsESMelavADdRfGVU/fr1mTRpEgMHDnROi8hZNGjQIF555RVrIX1aWhp5eXkAbNmyhS1btvDJJ58AEBQURGJiols1+rZt23o8NSnlExwczLhx47j22mv55z//adZKqwY8CNwIDATS7K8RqUoUsKSq6wd8BJwDxjf00aNHc//996s0gA8ICgpi1KhRjBo1CoBjx46xZs0ali9fzooVK0hJSWHdunUUFBRQWFjIhg0b2LBhAx999BFgXCXZunVrt8KoiYmJVmFU8Yz9y0ZRUREAderUYfLkyVx55ZXcd9995pWkTYBU4A3gFrQIXqogBSypqoKAN4E/mzvat2/Pf/7zHzp16lTSS3xKWFgYycnJJCcnW/uOHDlCamqqW42ujRs3UlRURF5eHmlpaaSlpfHOO+9Yv6N9+/ZW4EpKSiI+Pp5q1apZv1PKZgYsU+/evVm4cCFPPfUUU6dOpbCw0IUxKjwQ42KRLW4vEAlwClhSFTUAfgTiACIjI5k4cSJjxowhOFiHhL+JjIyke/fubtXis7OzWbVqlVWfKyUlha1btwLGKJi5z1S9enU6dOjgNtLVrFkzTQ87nGwEyy4yMpJHHnmEP/3pT9xzzz2sX78eoCHwK3A78KrbC0QCmM4mUtVcCXwAhIIxavXqq69qEXuAiYqKonfv3vTu3dvat3///hMKo+7cuROAw4cP89NPP/HTTz9Z/aOiotzWcyUlJdGoUaMqHbrKClimTp06MXfuXP7v//6PV199FYxzzSvAUGAQkG/vLxKIFLCkqnABrwNWMaXRo0fz8MMPl3qLGAkcderU4ZJLLuGSSy6x9u3evdstcKWkpLB3717AGAX77rvv+O6776z+MTExblOLSUlJ1KtXz2qvSkoLWGCsf3v00Ufp2bMnEyZM4I8//gCjjMMu4EJgndsLRAKMApZUBfUwpgRbANSoUYP//ve/DBo0yL2XVDn169dn4MCBDBw4EDBCQ2ZmplvoWrFihRkO2LdvH/Pnz2f+/PnW72jYsKHbSFfHjh0DthBteUew7Pr168f8+fMZN24cy5YtA4gBVgPXATPdOosEEAUsCXSdgaVAOJy5KUHzBCz+zeVyERsbS2xsLEOGDAGMILFlyxa3RfQrVqzg8OHDAOzatYtdu3Yxd+5c6/c0a9aMpKQkOnbsSKdOnejQoUNAXJVakYAFRgidMWMG//vf/5g8eTIY5RymA/8A/s+ts0iAUMCSQNYPo3BoMMDIkSN59NFHvTolmJWVxfPPP8/UqVOdTRIgXC4X8fHxxMfHW0VPCwoK2Lhxo1voSk1NJTc3F4Dt27ezfft2Pv/8c+v3xMfHn1AYNSLCv+6XXNGABUbdrIkTJ9KuXTvGjx/PsWPHXMAkoC0wwtFdxO8pYEmgugF4GwhyuVxMmjTJq/eyy8vLY9q0aTz99NNkZWU5myXAVatWjTZt2tCmTRtuuOEGwHhPrFu3zhrhMguj5ucb67k3b97M5s2b+fjjjwGjxlerVq3cphfbtGnjN4VRPQ1Ypssvv5xGjRoxatQoc73bcCAR6I4Wv0sAUcCSQHQvxu06XCEhITz33HMMHjzY2afCFi5cyKOPPsqmTZsAY9rx+uuv56GHHnL0lKokJCTECktjxowBIDc3l7S0NLfQtX79egoLCyksLGT9+vWsX7+eDz/80Podbdq0sUa6+vbt61OL6E9nBMuuc+fOzJkzhxtvvJFff/0VoAvGbXZaAcYwoIifU8CSQPM0cA8YtY3eeOMNevXq5ehSMTt37uRvf/sb3377LWBclfboo48yZswYFixY4OgtAuHh4XTt2pWuXbta+w4fPuxWGHX58uVWWM/Ly2P16tWsXr0agOeee46rrrrKem0gadKkCbNmzeLWW29l8eLFAE0x6mUpZElAUMCSQPIWMBKM8PPuu++SlJTk3qMCCgoKeOutt3jyySethc1jx45l0qRJAXu1mJw51atXp0ePHvTo0cPal5WVZRVGdV6l6GtcLhdFRUVeubAjKiqKadOmccstt/D111+De8gS8WtBzh0ifiqI4nBlfjP2Rrj69ddfGTx4MP/4xz84fPgwCQkJzJs3jxdeeEHhSrwmOjqaCy+8kHvuuYf333/f2eyTnn32Wd58800KC0/vNoMhISG8+uqr9O/f39zVFNhA8Y3XRfyVApYEChdAo0aNmDVrFi1atHC2e6SwsJDXXnuN/v37s3LlSoKCgpg4cSLLly/32pSjiD8y12EdP36chx56iOHDh/P77787ennGDFmXXnqpuasZUMvWRcTvKGCJv2tjbkRHR/P+++/TsGFDe7vHdu/ezfDhw3n44Yc5fvw4zZs3Z8GCBfzzn/8kPDzc2V2kSjED1nnnnQfAkiVLuPjii5k9e7a9m8dCQkKYOnUq/fr1M3fp/CR+TW9g8WedgLHmk2nTppGYmGhr9tySJUvo27cvS5YsAWDUqFH88ssvbjcSFqnKzIA1bNgwZsyYQUxMDFlZWdx6661MnDiRY8eOOV5RfmbIuuCCC+y7jYqvIn5GAUv8VWOMCu1BYNQUsl+p5anCwkImT57M9ddfz4EDB4iIiOCNN97glVdeCYgK3CLeVlRUxODBg1m2bBndunUD4N1332XIkCFkZGQ4epdfaGgoU6dOpVq1auauZOCvti4ifkEBS/xRELACsMpg2+vzeCo7O5tRo0bxn//8h6KiIpo3b86SJUsYMULFpUWczGPNrIPVpEkT5s2bx1/+8hcAUlNT6d+/vzUKXBHR0dHUqFHDvutZoK99h4ivU8ASf/QBxg2cT3vB+W+//cbQoUOZN28eAH369OHHH3+kY8eOjp4iAicGLICwsDCeffZZXn31VYKDg/njjz8YMWIEH3zwgdXHU0FBxump+KcLmAPUtXUR8WkKWOJvBgHXAHTr1o0+ffo4mssvLS2Nyy+/nPXr1wMwevRoPv/8c5VfECmHk1VyHzlyJF988QXR0dEUFBRwzz338OSTT55WKQfblYVhgCr6it9QwBJ/UgP4CKBGjRo899xz1rdcTy1dupShQ4eye/duAB577DFeeuklQkJCHD1FxO5kI1h2F198MYsXLyY2NhaAKVOmcPfdd1NQUODoWT4dO3Zk6NCh5tP2wCO2ZhGfVbGzk0jlmEfxuqsnnnjC+gD31KJFixgxYgRHjhwBjIKJDzzwwGmt4xKpKsoKWABt2rRh4cKFVj266dOnc/vtt5OXl+foWT7/+te/aNSokfn0YaC1rVnEJylgib+4EzgPYPDgwRW+P9u3337LyJEjOXbsGC6Xi5deeslanCsi5VdawAKIjY1l/vz5VumUzz//nFtvvbVCISsqKopnn33WDHdBGFOFOn+JT9MbVPxBbeApgAYNGvDkk09WaLRp6dKljB071vqAf/nllxkzZoyjl4iUpjwjWKZGjRoxb948WrZsCcDcuXOZMGFChdZk9ezZk1tvvdV82hDjykIRn6WAJf7gHYpvTP7MM89Qq5bnd9BYt24do0ePtsLVpEmTGDVqlHsnESmTp19u6tevz5w5c6hXrx4An332GY899li5AprTAw88YIU14DaML18iPkkBS3xdPHAZGItnL7zwQkdz2Xbu3Mnw4cPJyckBYNy4cdx7772OXlXLpk2bAOzFHEU84klAiouLY/bs2VbR3qlTp/Lyyy87epUtNDSURx991HxajeKLXkR8kQKW+Lr3AZfL5eKhhx5ytpUpNzeXMWPGsGfPHgAGDBjA008/7fG38ECTmZkJoFsAicc8mSK069SpE++++671+kmTJrFw4UJHr7I5vmhdgnHLLBGfo4Alvuw8oBvA0KFDadu2raO5dEVFRdx///2kpaUB0KJFC956660qP2qzd+9etm7dCsDll1/uaBUpH08DFhhfcB5++GHAeP24cePYvn27o1fpXC4XjzzyiL1Ei0axxCcpYIkveweMG8BOnDjR2Vamd999lxkzZgAQGRnJ9OnTVUQU+OWXX6xtBSzxVEVHsEwPPPCA9b7Lysripptu4vjx445epWvdujU33HCD+TQRGGBrFvEJCljiqwYBCQB//vOfadq0qaO5dNu2bbOv1eDJJ5+kQ4cOJR2qsJ9//hkwCjg2adLE0SpSutMNWEFBQUydOpX69esDxgUo//3vfx29ynbvvfcSGhpqPv23vU3EFyhgia96AiAiIoIJEyY420pVUFDAhAkTOHr0KAB9+/bllltucfSqmnJzc1m9ejWg0Ss5PRUNWAB16tThpZdesp6/8MILpKSk2HqULSYmxl7hvQNgVSIV8QUKWOKLagPtAP70pz8RExPjaC7d22+/bU2D1axZk1dffbXKL2o3paamWqUqFLCkIk53BMt0+eWXc+ONNwJQWFjInXfe6XER0ptuusncdKG6WOJjFLDEF03C+MBk+PDhjqbSHThwgP/85z/W8wceeEDTYDbLli0DoF69eiQnJztaRcrmrYAFxi2vzNINmzdv5s0333T0KF379u3p1q2b+XQwxfXyRHyBApb4ousBEhISPA4BTz/9NNnZ2QA0a9aM8ePHO3pUXUVFRdbI3sCBAyt8o2wR8E7AqlevHg888ID1/H//+x/79++39SibbRQrFBhnaxKpVPqEFV9zMVAL4Prrr/doam/btm1MmzbNej5p0iTCw8NtPaq29PR0/vjjD0DTg1Jx3hzBAhg/frx14/bs7GymTJni6FG6AQMGEB0dbT415hxFfIAClviaSWCUZrj66qudbaV6+eWXrXucxcfHV/iG0IHKvHowLCyMPn36OFpFysfbASs8PJy77rrLev7ee+9ZXwTKIyQkxP5+7mhvE6lMCljiS4Iwioty6aWXerS4vaioiA8//NB6ftddd1X5gqJOZsC68MILqVGjhqNVpHy8HbAARo0aRe3axm0Fjxw54vFarH79+pmboYC+PYhPUMASXzIA4/5iDB4832NMvwAAIABJREFU2NFUuqKiIqtYYe3ate1FCAXIz89ny5YtgKYHxTu8GbCqV6/O2LFjreeeBqyLLrrIvqZQCy/FJyhgiS+x1k/07NnTvr9M9g/7YcOGERERYWuVw4cPW9sKWHI6PFkX6QmzZAPAvn37PCrZUKtWLbp27Wo+7WVvE6ksCljiS84HaNu2rTVdUBHXXXedc9dZdeutt/Liiy/y/fffW1c0VjYzYHXo0MFaUCxSEWdiihAgMTGRc88913ru6e1zevWyclXFPzxEvEg1Q8SXNADjFi4V1aRJE7p37+7cfVatWrWKVatWWc9btGhBp06dSEpKIikpifbt2xMZGWl7xZlnVrXX6JV4i7cDFsA111zDihUrADwawQJo06aNuRmEUah4bUmryNmngCW+Irz4QWJioqOp/Pr06XPGpjBKk5yczEsvvcTKlStZvnw5aWlp1gliy5YtbNmyhU8++QSAoKAgEhMTrcCVlJRE27ZtCQsLs/9KrzJPhgpYcrrO1AgWGMevydPf37p1a/vTgShgSSVTwBJf0cPcSEhIsO8v1ZEjR9ye9+7d2+352VKnTh3GjBljPT927Bhr1qxh+fLlrFixgpSUFNatW0dBQQGFhYVs2LCBDRs28NFHHwHGpeatW7e2AlenTp1ITEwkJCTE+p2nq27dunTp0sW5W8QjZzJgdejQgXPOOYeDBw86m8rUtGlTwsLCOHbsGNg+T0QqiwKW+Ip25oYna4QyMjLcntvWYVSqsLAwkpOT3SrRHzlyhNTUVFasWMHy5ctJSUlh48aNFBUVkZeXR1paGmlpabz77rsAhIaG0r59e7eRrpYtW1a4/ISqt4s3nYmAFRQURI8ePZgzZ46zqUzVqlUjMTGRtLQ0+P/27js8qir/4/g7k2ISIEAIwdB7jQnSi8TQQQRBUFfdFesPRVexIIqKy6LoqouKiq5ro4hSFDZGinSkCIQWpbfQAoQQISSEtJnfH8NcZ66ICdyQSfJ5Pc99cu8530EfHjLzmXvOPQeam/tFrjYFLPEWDVwnVatWdW+/pNTUVOM8ODiY2rVru/V6l+DgYDp27OgxRyw9PZ0tW7awceNGNm7cSEJCAgcOHACck3w3bdpkzEkB559x3XXXGXe5oqOjqVOnToGCk4YHxQpFeQcLnA+5XE7AAmjYsKErYBV8ET2RIqKAJd6iNjiHyty2vfhTJ0+eNM4bNWpUoKDhTUJCQoiJifEY2kxLSzPmcrmC15EjRwDnXbB169YZmzaD88+IioryCF01atTwmIvm4+ND9+7djWuRy1XUAcs8B7Mwk90rVarkOi26CY0iBaSAJd6iIjjDQmFCUlpamnHeoIFxE6xECw0NpXv37h6B6MSJE8ZcroSEBBISEoxwmZ6ezqpVq1i1apVRX6VKFaKjo1m6dCkA5cuX1+rtYomiDlgNGzb0uC7MfKyQkBDXaYB7u0hxUMASbxEEzn3JCuP8+fPG+ZWsneXtqlWrRt++fenbty/g/HA7evSox9Dipk2bjA+jU6dOGeEKPL7Zi1iiqAKW+ffY/Xf8z1SoUMF1qs82KXb6Ryje4rIC1oUnhgDnXZqywsfHh5o1a1KzZk1uueUWwPmBl5SU5DG0uHbtWnJzcws17CpyKUV9B8v8e1yYBUfdApYPzs+3vN96Ra4uBSzxFn7gfHKuMNzffM1vzGWNj48P9erVo169etx2222A807WX/7yF0aNGmWqFrk8RR2wypUr53FdmIBleg8oD5x2bxC5mhSwxFvYoXATWsH5hupaC6swb8RlRZUqVYiLi9PejGK5ogpY5veAnj17elxfium1+e4XIldbwWcTixStfCh8SHIbEuDs2bNuPeKicCVFoagCVkZGhsd1YZZtMb9WpDgpYIm3yAPPOVUF4R6w9OYqUvSKeisq8xelwgz9mzZXL5oEKFJACljiLXLhd2+Qf+raa681zs2ruouI9Vy/o0V1B8v8e1y9enWP60vRlyzxJgpY4i2yALKyssjMzDT3/aH69esb57t373brERGr5eTkGAGrcuXKpl5ruP8eBwUFeXyJ+jOF/YImUpQUsMRbZLlO3Fdn/zPuixImJyfrG6xIEdq+fbtxXlQ7A7gHrPr16xdq4eHjx4+bm0SKTcH/5YoULSNgHT161L39kiIjIz2u3fftExFrbd68GXDOi2rfvr2p1xoJCQnG+XXXXefW8+d27txpbhIpNgpY4i2Me/t79+51b7+k5s2beyyiuXz58t86RcRSri8wsbGx+Pv7m3qvXGpqqmuzZgA6d+7s1ntpGRkZxp6dIt5AAUu8hbHi8p49e9zbL8lms3m8Ca9YscKtV0SskpaWRlJSElC4takK48cff/S47tSpk8f1pWgOpngbBSzxOu7zPAqiR48exvnatWsLNYdLRApm69atxnlRBaz4+HjjvFmzZkRERLj1XtquXbvMTSLFSgFLvM6mTZsKtR7WTTfdxDXXXANAfn4+33zzjalCRK6Ua/5V3bp1PZ7etcq5c+eYO3eucT148GC33j+3ZcsWc5NIsVLAEq+Tk5NjvJkXREhICL179zaup0+f7tYrIlfK4XAYv5M9e/YsksVG4+PjjaeAfXx8uPXWW00Vf8zhcLBkyRJzs0ixUsASr+J64y7sm+Vdd91lnK9bt07fZkUslJSUxOnTzn2T3YfkrfTxxx8b5927dy/U+lc7d+4kOTnZ3CxSrBSwxKsEBwcDMGfOHOx2u6n3j3Xp0sVjyYa3337brVdEroTr6UFfX19iY2M9Oy2wYcMGjwnuw4cPd+v9c4sXLwac/38i3kIBS7yKa9+x5ORk1q1bZ+r9Yz4+Pjz66KPG9axZszh06JBbhYhcLtfwYLt27ahUqZKp98pNmDDBOG/dunWh19hatGgR4JwfJuItFLDEqwQHBxMSEgJQ6Mnq/fr1o1GjRoBzsvs///lPU4WIFFZubi7btm0DimZ4cNOmTXz77bfG9ZNPPlmoOV7Hjx9n48aNADRu3NjUK1J8FLDEq/j4+Bhv4vHx8YV6mtDPz4+xY8ca11OnTtXK7iJXaP/+/eTlOZepszpgORwORo4caVx37dqVbt26uVX8uSlTpuBwOLDZbDRt2tTcLVJsFLDE69x0002Ac+NW19yKgoqNjfXYI23kyJE4HA63ChEpDNcCnhUrVqRNmzam3iszd+5cVq1aBTjnT/3jH//wLPgT2dnZTJ06FXCGM9fdbxFvoIAlXicqKorq1asDzm+nhTVu3DiCgoIAWLVqFZ988ompQkQKyhWwunbtip+fn6n38p06dYonnnjCuB42bJgxxF9Q//vf/zh16hQAd9xxh6lXpHgpYInXsdlsDBkyBHBunbFhwwZTxaXVrVuXF1980bgeNWoUBw4ccKsQKRmee+45vv76a3bs2GEM011tKSkpgPWrtz/55JOcOHECgKZNm/Lss8+aKi7N4XDw2WefAdCoUSOuv/56U4VI8VLAEq80ZMgQ42mlN99809T754YOHUpMTAwAmZmZPPjgg8X2ASVyuTIzM3nqqafo3r07jRs3ZsCAAbz00kvMnj2bvXv3Fmopkytl5fyr2bNnM2PGDAD8/f157733CAgIMFVd2sqVK0lMTAScd68KMzFe5GpQwBKvFBwczNChQwHnMN9PP/1kqrg0m83Gu+++S3h4OOD8M1566SVTlYj3CQ4OZvz48dx6663UqVPHaD9//jwJCQl8+umnPP7448TExNC0aVMGDx7MuHHjiIuLIykpqUjmHDZs2NCyJRB27tzJsGHDjOsXX3yRFi1auFX8udzcXMaMGQNA1apV6dOnj6lCpPhZN6AuYrEhQ4YwdepU0tLSeOutt5g9e7a55JKqVavGxx9/zJAhQ8jLy2PChAm0adOm0HuciVxNAQEBPP3008b1yZMn2bx5MwkJCWzcuJGEhASOHz8OQEZGBmvXrmXt2rVGfcWKFYmOjiY6OpqWLVsSHR1NRETEFd3hseruVXp6OrfddpuxJc6gQYN48MEHTVV/bvLkyezZsweAJ554gsDAQFOFSPFTwBKvFRQUxNChQ3n77bdZs2YNP/74I126dDGXXVK7du0YO3YsL7zwAgAPPfQQ9evX13wNKTGqVq1Kr1696NWrl9F27NgxI3C5Dtdk7zNnzrBy5UpWrlxp1IeFhRlhKyoqiujoaOPubkFYMf8qLy+PoUOHGpPmmzVrxptvvlno4Hfq1CneeustAKKjoz32IRXxJgpY4tUGDx7MlClTOHXqFM8++yyLFy+mXLly5rJLuvfee0lKSuK///0vmZmZDBgwgJUrV1KvXj1zqUiJEBERQf/+/enfvz/gnPB96NAhj7tcmzdvJj09HYDU1FQWL17ssexJRESEx52uqKgoKleubPS7+Pr6cuONN5qbC8XhcPD3v/+defPmAVC9enWmTZtmbI1VGK+//jrp6en4+PgwcuTIQgc0katFAUu8WmBgIKNGjeLZZ5/l4MGDjBs3jtdff91cdkk+Pj68/PLLpKamMmfOHFJSUujXrx8rVqygatWq5nKREsfHx4c6depQp04dYwjcbrezb98+jztdmzdvJisrC3DeBTt27BgLFiww/pzatWvTsmVLjz39IiMjqVChgnF9OcaNG2c88VepUiW++uorIiIiTFV/LjExkenTpwMwcOBALSwqXk0BS7xet27d6Nu3L/Pnz2fKlCn06dOn0BvO2mw23nnnHc6cOcPSpUvZt28fffr0YcGCBQpZUirZbDYaNWpEo0aNuPPOOwHnMN3OnTs9hhYTExPJyckB4NChQ7/bw9P1NO7leuONN3j11VcBKFeuHFOnTi30elcAOTk5xsLB5cuXL/SG0CJXm54ilBJh5MiRRhB66qmnOHPmjKniz/n7+/PZZ58Z80l++eUXevToYUwYFint/Pz8iIyMZOjQoUycOJHVq1dz6tQp1q5dy/vvv899991HVFSUx2sGDRrkcV1QDoeDV155xXh6NyQkhK+//prWrVubKgtm7Nix/PzzzwA8+uijFx3OFPEmClhSIoSEhBhv1MePH+eFF164rMfRAwIC+OSTT7j55psB5yPjPXr04PDhw6ZKkbIhICCAVq1a8dBDD/HRRx+xYcMGfv31V5YvX87bb79t7KpQGA6HgzFjxjBu3DjAOSw4a9asyw5XcXFxfP7554DzjrZrIWIRb6aAJSVGp06duPXWWwH49ttv+fTTT00VBePv78+kSZOMYZM9e/Zwww03sHnzZlOlSNkUHBxMx44dGT58eKEfBsnJyeGBBx7gjTfeAJyT6b/55huuu+46U2XBHDhwgGeeeQaAmjVrMmbMGE1slxJBAUtKlBEjRtCgQQMAXn75ZRYtWmSqKBg/Pz/eeustnnvuOcB5V6x79+7Mnz/fVCkiBfXrr7/Sr18/vvzyS8A5QX7evHk0a9bMVFkw58+f56GHHiIjIwN/f39ef/11ypcvby4T8UoKWFKiBAcH88477xAaGorD4eCRRx7hl19+MZcViI+PD48//jiTJk3C39+fzMxMbr31ViZMmHBZw48iZdn27dvp0qWLsf5W9+7dmTNnDtWqVTNVFtyYMWPYvn07AM8884yeGpQSRQFLSpyIiAgmTJhAQEAA586d429/+xvHjh0zlxXYwIED+d///kf16tWx2+08//zz/OUvfzHWEBKRS5s1axY33HCDx+rqX3zxRaHXrHP3/vvvM23aNAB69eplTA8QKSkUsKREioyMNCbQnjhxgnvuuYfMzExTVcG1bNmSH374wXgkfe7cuXTu3Pmy746JlAXZ2dk888wz/PWvfyUzM5OQkBAmT57MqFGjPNbSKqzJkyczfvx4ABo3bsyLL76oeVdS4ihgSYnVvXt3HnvsMQC2bdvGgw8+SHZ2tqmq4EJDQ/nyyy956qmnsNls7N69m06dOvHee+9ht9vN5SJl2vbt27nhhht47733AOe2NQsWLLjibXW+/fZbRo8eDUCdOnV4//33L2vFd5HipoAlJdrQoUMZMGAAACtWrOD++++/opDl6+vLM888w9y5c6ldu7bxDb1fv34kJyeby0XKHLvdzgcffECHDh1ITEzEZrMxYsQI4uLiqFu3rrm8UH744QeeeOIJHA4HERERfPjhh4SGhprLREoEBSwp0Xx8fHjhhRfo0aMHAMuWLePBBx80Vqa+XG3atGHx4sXccccdACxdupSWLVvyySef6G6WlFm7d++mV69ePPXUU2RnZ1OnTh3mzp3Ls88+i7+/v7m8UFatWsX//d//kZ+fT2hoKB988EGhNqQW8TYKWFLi+fr68sorr9C9e3cAlixZYknIKl++PG+//TbTp0+ndu3anDlzhkcffZSePXuya9cuc7lIqZWTk8P48eNp3bo1P/74I76+vgwfPpwlS5bQpk0bc3mh/fjjj9x3333k5OQQEhLCpEmTqF27trlMpERRwJJSwc/Pj1dffZVu3boBsHjxYu6///4rmvjuEhsby7Jlyxg+fDi+vr6sWrWKNm3aMGbMGDIyMszlIqXKkiVLaNeuHWPHjiUnJ4eoqCjmz5/Piy++aMncqJkzZ3L33XeTmZlJcHAwEydOpGHDhuYykRJHAUtKDT8/P8aPH2+ErKVLlzJ48GBSUlJMlYUXFBTEiy++yA8//EDHjh3JycnhX//6Fy1atGDatGkaNpRSZ9++fQwePJibbrqJHTt2ULFiRV555RXi4+OJjIw0lxeaw+FgwoQJjBgxgry8PEJDQ/noo48s+bNFvIEClpQqfn5+vPbaawwcOBCAxMRE+vfvz969e02Vl6dZs2bMnj2b//73v9SsWZPjx4/zwAMPEBMTYyywKFKSpaamMmrUKKKjo4mPj8fX15f77ruPNWvWcP/99+Pn52d+SaHl5uby1FNP8dZbbwFQt25dvvjiC5o3b26qFCm5FLCk1PH19eWFF17g4YcfBuDw4cP079+fdevWmSovj4+PD/369WPlypU899xzVKhQgQ0bNtCzZ09uuukmEhISzC8R8Xrp6emMGzeOpk2b8s4775Cbm0vXrl1ZtGgRr776KpUrVza/5LKcPXuWv/3tb8yYMQOAVq1a8dlnn13WptIi3kwBS0olHx8fHnzwQf7xj3/g6+vLmTNnuP3225k2bZpl2+AEBgby+OOPs27dOh577DECAwNZsmQJnTt35rbbbmPLli3ml4h4nbNnz/Lvf/+bJk2a8Morr3D27Fnat2/P3Llz+fLLLy3dnmb//v0MHDjQuNvbq1cv3n//fUJCQkyVIiWfApaUajfffDMTJ04kODiY3Nxcnn32WUaMGEFWVpa59LJVqlSJ0aNHs3btWu677z4CAgKIi4ujffv2DBgwgFWrVplfIlLsUlNTGTt2LA0bNmT06NGkpaXRsmVLpk+fzrfffku7du3ML7kis2bNolevXuzYsQOAe++9l1deeYWAgABTpUjpoIAlpV779u2ZMmUK9evXB5xv9DfffDP79+83VV6ZatWq8eqrr7J+/XoeffRRypcvz8KFC+nevTvdunXj+++/12R4KXYHDx5k5MiRNGrUiPHjx3P69GluuOEGZs6cyffff09sbKyl29JkZGTw+OOP88QTT3Du3DmCgoIYO3Ysjz32GDabPoKk9NK/bikT6taty+TJk+nbty8AO3bsoE+fPsTHx5sqr1x4eDgvvPACCQkJjBo1irCwMFavXs2tt95KixYteP/997WRtFxVDoeDlStXcvvtt9O0aVMmTpxIVlYWvXv3Jj4+npkzZ3LDDTdYGqwAfv75Z3r37s3s2bMB576C06ZNo1+/fqZKkdLH2t8mkcv3ETCsfv36zJw509xnGYfDwZw5c3jzzTfJzc0FYMiQIYwbN46KFSuaqq2Rk5NDXFwcn3zyCYmJiQBUqFCBv/3tbzzwwAN6LF2KTHp6OrNmzeI///kPW7duBSAkJIQ777yTe++9lzp16pheYQ2Hw8Gnn37KuHHjjN+z22+/nREjRhTpkOB3333H2LFjXZcVAC1UJ8VGAUu8xVUJWC47duzg+eef58iRI4BzeG/ChAl07drVVGkdh8PBxo0b+eSTT5g/f77xwdO2bVvuvfdebr/9dk32lSvmcDhYu3YtX3zxBbNmzeLcuXOA8+7Rvffey2233Ua5cuVMr7JOUlISzz//PCtWrACcgW7MmDHExsZ6FhYBBSzxJgpY4i2uasACyMrK4r333vP479111128/PLLVKhQwa3SemlpacyePZsvv/ySPXv2ABAcHMzAgQO566676Nq1qyXrDUnZkZSUxNdff8306dONrZyCgoK45ZZbuPvuu2nVqpXlQ4DucnJy+OCDD3j33XeNbaqio6N59dVXufbaa03VRUMBS7xJ0f22iRTOVQ9YLuvXr+ef//wnx48fB6BGjRqMGzeO3r17F+kHEvx2V+urr74iPj6es2fPAlC1alVuu+027rzzTtq2bVvk/x9SMqWmpjJ79my+/vpr1q5da7S3bduW2267jVtuuaXIvyyAc6Pm559/nn379gHOJUyGDRvGXXfdha+vr6m66ChgiTfRu7Z4i2ILWACZmZlMmDCB//3vf0Zb165dGTdunPH0YVHLzs5m8eLFfPPNNyxZssQYQqxVqxYDBgxg4MCBdOrUSXe2yrgjR44QFxfHnDlzWLVqlfFkasOGDRk8eDCDBg26ahslnzx5kn/+85988803RltMTAwjR44kIiLCrfLqUMASb6KAJd6iWAOWy7p163jjjTc4ePAgAP7+/gwbNowRI0ZYsrFtQZ0+fZr58+czf/58VqxYYYStKlWq0L9/f/r27Uu3bt00Z6sMsNvtbN26lYULFxIXF8fGjRuNvoYNG9K3b1/69evHddddd9XudObm5jJ9+nRee+0144nY8PBwRo4cafkyD4WhgCXepHh+C0R+7yNgGMD06dNp3LixqfvqcX14fPLJJ8aCpBEREYwePZqBAwde1SEPcK60vWzZMubNm8fSpUvJyHB+Zvj5+dGpUyf69OlD7969adGiRbF9sIm1fv31V5YsWcLChQtZsGCBx4bl0dHR9O3bl759+9KoUSO3VxU9u91OXFwcb7zxBklJSQDYbDbuuOMOHnnkkav6JcQsIyODJ554wnhaEgUsKWZ6NxZvMRm4B2DMmDEMGDDA1H31paSk8M477/DDDz8YbU2aNGHUqFFXZX7WxeTm5rJhwwaWLl3K0qVL2blzp9EXHh5ObGwssbGxdO3alXr16hXL/6MUXkZGBmvWrGHZsmUsX76cLVu2GEN/ISEh3HjjjXTr1o2uXbsSHh5uenXRczgcLF68mNdff91YiR2gRYsWPPfcczRr1sytunhkZWXRpUsX9yYFLClWevcVb7EMiAWYNGmS5dt0XImEhATeffddjw+Wli1b8txzz9GlS5diDTFHjx5l2bJlrF69mtWrV5Oammr01axZky5dutChQwc6dOhAZGSk5m95iRMnTvDTTz+xdu1a1q5dS0JCAnl5eYDzzuT1119P586diYmJoXXr1vj7+5v+hKtnzZo1vPbaax5Dk/Xr1+eRRx4p1uHAi+nTp4/774AClhQr7/nNkLKuG7AE4KuvvrrqQx9/xuFwsGzZMj788EMOHDhgtHfq1IkRI0bQuXPnYv+gcTgc7Nmzxwhb69at49SpU0Z/uXLlaNOmDe3bt6dVq1a0atWK2rVrF/v/d2l39uxZtm7dypYtW9iwYQM//fSTMbwGznl+kZGRdOrUic6dO9O2bdsiXaeqoDZu3Mibb75pbMwMUL16dYYNG0bfvn29cpub+++/37WY7/+AQYA1O7uLXAa9s4q3GAzMBli4cCFVqlQxdXsHu93O/Pnz+c9//kNycrLRHhUVxfDhw7npppu85i6Rw+Hg4MGDJCQkkJCQwIYNG9i5cycOx2+fOZUrV6Zly5Zcf/31REZG0qJFC5o0aUJQUJDbnyQF4XA4OHLkCNu2bWPbtm1s2bKFzZs3s3fvXo+/89DQUNq0aUPbtm1p06YN0dHRBAYGuv1JxSc/P5+FCxfyn//8hw0bNhjtoaGhPPjggwwaNKhY76b9mdGjR7uG9NcCnUzdIleVApZ4i0eASeB8ku9qTyQvrNzcXObOncvkyZON9bMA6tSpw7Bhw7jjjju8MqRkZGSwbds2EhMTjcMcAGw2G/Xq1aNFixY0a9aMRo0a0aBBAxo2bEjVqlXL/B2vrKwsDhw4wN69e9m3bx87d+5k+/bt7Nixw1jHzKVy5cpERUUZx3XXXUetWrW87u8wIyODGTNm8N///pdDhw4Z7RUqVGDo0KFe++/ZbOLEiUyZMgXgEFA0+wCJFJB3/ZZLWfYy8I+KFSuyZMkSc5/XysvLY9GiRUyePJm9e/ca7aGhodx9993cfffdV21NosuVmZnJzp072b17Nzt37mTXrl3s2rWLEydOmEspX748DRo0oH79+tSsWZNatWpRq1Yt47xatWpeOXRUGGfPnuXIkSMcPnyYw4cPc+TIEY4cOUJSUhL79u3j6NGj5pdwzTXX0LhxY5o0aULTpk1p3LgxTZs2pUaNGl4XptwlJyfz2WefMW3aNI8NyKtXr85dd93FgAEDivXJwML67LPPmDRpEkAa4J23waXM8N7ffClrXgOeu/baa4mPjzf3eT3X/m+TJ0/2mAzs4+PDjTfeyD333EOPHj28ZviwIE6fPs3+/ftJSkriwIEDJCUlGedpaWnmcsB59yssLIxq1aoRHh5uHFWrVqVixYpUqlSJihUrGuchISEEBQURHBxMQECAZWEkPz+fc+fOcf78eTIyMjh9+jRnzpzhzJkzxnlaWhopKSnGceLECVJSUoy9+8wCAgKoU6cOdevWNY569epRt25datWq5fV3XV3sdjvr1q1j6tSpfPfdd+Tn5xt90dHR3H333cTGxpbIoPzVV1/x73//GyAHuMbULXJVWfNuJnLlXgU/VliLAAAaQElEQVRGV6tWje+//97cV6Js27aNGTNmsHjxYmNPNnBuKH3XXXdx5513UrNmTbdXlDxZWVkkJydz9OhRjyMlJYWTJ0+SmppKamqq8WRcQdhsNoKCgozD19cXPz8/fH19PQ6Hw0FeXh75+fkeR3Z2NllZWWRlZXn8vRdExYoVCQsLo2rVqlStWpWIiAhq1KjhcVSpUsWyAFgcDh06xKxZs5g1a5bHMKDNZqN79+7cfffdREZGur2i5Jk7dy6vvPKK6zIAcK7QK1IMSu67hZQ244AXw8PDmTdvnrmvRDpz5gzx8fF88803Hh9oAB06dGDQoEH079+fSpUqefSVFg6HgzNnznDy5EnjrlF6errxMz09nbNnzxqhyHy4gpPdbvc4t9ls2Gw2I3C5zv39/QkODvYIaa67YxUrViQkJMT46ToPCwsjLCzMqyduX4nMzEy+//57Zs6cyZo1azz6KlSoQP/+/fnLX/5C9erVPfpKKtNK7sGAc6VgkWKggCXeYiwwpmrVqsyfP9/cV6I5HA42bdrEN998w9KlSz3u6vj7+xMbG8vgwYPp2bNniZhILN7NNQQ4c+ZMvvvuO48hT5vNRseOHenfvz8xMTEEBAS4vbLk+/bbbxk/frzr0oaWaZBiVHImhEhpZwfnh0Np4+PjQ+vWrWndujWnT59m8eLFzJ8/n61bt5Kbm8uiRYtYtGgR5cqVo2fPnvTp04fY2FjtMygFlpOTw6pVq1iwYAELFy7k5MmTHv3169c39rAMCwvz6CtNsrOzXafnUbiSYqaAJd4iB5wfFKVZpUqVGDJkCEOGDCE5OZkFCxawYMEC9u/fT2ZmJnPnzmXu3Ln4+/vTsWNHevfuTa9evahRo4b5j5IyLj09naVLl7JgwQKWLFlCZmamR39ISAh9+vTh5ptvplmzZiV6/lhBmQKWSLEq/b9xUlLcB3wGzq05StvQxaW4VmBfuHAhK1as8Fjl2yUyMpIePXrQpUsXWrduXab+fuQ3ycnJLFq0iAULFrBmzRpycz3ncFeuXJmYmBhuvPFGOnToUOb+nUyYMIHp06cD7AGKb8d4ERSwxHv0AeYDxMXFlZpJt5fj0KFDLF++nBUrVpCYmOixCChAUFAQ7du3p0uXLsTExNCsWbMS+Ui9/LmUlBTWrFljbH90sfBds2ZNunbtSmxsLNddd12Z/rfw/PPPs2jRIoDlQFfPXpGrSwFLvEUUsBWciwVGRUWZusumtLQ0Vq1axYoVK0hISPjdMBA4FzXt3Lkz7dq1o02bNjRv3rzUPhVX2qWlpbFmzRojVO3Zs8dcAkDz5s2JjY0lNjaWevXqlYnhv4J44IEH2Lp1K8A04G+mbpGrSr+V4i2qAikAb7zxBt26dTN1S35+Ptu3b2f9+vWsW7eOxMTEi64zFRgYSMuWLWndujVt27aldevWXru3Y1mWn5/P3r172bp1K1u3buWnn35ix44d5jLAuYaaa+/Cdu3aER4ebi4R4KabbiIlJQWcCxePNnWLXFUKWOItbDjXrAl4/PHHueeee8z9YpKVlcWWLVtYt24dmzdvZufOnR6rcrurU6eOsZlzixYtiIyM5Nprr9Wdj6vEbrdz4MABI0xt3bqVX3755Q9XjQ8NDTUCVdu2bb1+yx1vcPr0aXr06OG6vAv4yq1b5KrTU4TiLew4hwjb/vLLL+Y+uYigoCA6duxIx44dATh//jw7duwgMTGRrVu3kpiYyOnTpwE4ePAgBw8e9Fglv3LlykbYatasGQ0bNqRBgwZaHuIKpaWlsW/fPvbv38/u3buNTbXNG0G7Cw8PJzIy0ghUdevWVaAqpN27d7tfbnG/ECkOCljiTX4C2v788884HA59wBRSYGAg119/Pddffz3gfDrx8OHDJCYmsmPHDnbt2sXu3buNuya//vorq1atYtWqVe5/DNWqVaNhw4ZG4HL9rF69eonZb6+oZWdnG5s/mw9XqP0jVapUoUWLFjRt2pTmzZvTrFkzDeFaYNeuXa7Tc4BH2hIpDvoEE29yF/AlQHx8PNdee62pW66U3W7nyJEjRtjatWsXO3fu/MPNm935+flRvXp1atasSa1atahZs6bHeURERKmYXJ+Tk8Px48eNIzk52Tg/duwYx44dIzk5uUCL4oaFhdG4cWOaN29uhKmqVauay8QCTz75JD/++CPAauAGU7fIVac7WOJN1rpOEhMTFbCKgM1mo3bt2tSuXZuePXsa7adPnzaGEZOSkozjyJEjRpDIy8vj0KFDv9tX0V1oaCjh4eGEhYURHh5OeHg4VatWNX5WqlQJf39/j8PPz4+AgACPn5e71IDD4TD2Ljx//jxnz5419jw0/zxz5oxxnZ6eboSogoRNd9dccw116tS56FGuXDlzuRSB3NxcEhISXJeL3ftEiosClniTJOAIUHPp0qX06tXL1C1FpVKlSlSqVIno6GiP9tzcXI4ePcqhQ4eMOzfuP8+cOeNRn5aWVuiAcjG+vr6/C16+vr4eGz/n5eUZ1+7nVvP396dq1aoeQbFmzZpGiAoPD7/sQCjW+Pnnn8nKMvZ1VsASr6CAJd7EAXwNPLNy5UoyMjIoX768uUauIn9/f+rWrUvdunXNXQCcO3fOCFwpKSmcOnWK1NRUTp065XEUdgskV4hy2/rEMj4+PpQrV47y5ctToUIFypcvT/ny5QkLC/tdkAoPD6dixYqaD+jlLgwNAmQA69y6RIqN3jXE2xgLjo4ZM4YBAwaYuqWkcTgcZGRkkJqaSmZmJnl5eeTl5ZGbm+vx0/0w9+Xm5pKfn4/NZsPX1xdfX9/fnbuGFl3n/v7+RnhyD1LBwcG641SK2O12br75Ztf6V18Dd5pKRIqF7mCJt0kEfgaumzdvngJWKeDj40OFChWoUKGCuUvkim3atMkVruDCQzIi3kBf48QbTQPYuHGj+xuniMjvzJs3z3V6Cljo1iVSrBSwxBtNBxwOh4P58+eb+0REAOdDFQsWLHBdfgXkunWLFCsFLPFGR4ClADNmzCj0BGkRKRtmz57ten9wABNN3SLFSgFLvNUbACkpKcydO9fcJyJlXHZ2NjNnznRdxgF73LpFip0ClnirRThXZObzzz/XXSwR8TB16lT3bYkmuPeJeAMFLPFWDuBlgJMnT/Ltt9+aukWkrDpx4gSff/6563IhYCyEJeItFLDEmy3lwhvn559/XiSLTopIyfPuu++63g/ygBE4v5CJeBUFLPFmDmAMwKlTp5g6daqpW0TKmk2bNvHDDz+4LicCO926RbyGVnKXkmAB0NvPz48pU6bQuHFjc7+IlAF2u52//vWv7N69GyAFaAx4bogp4iV0B0tKgv8D0vPy8hgzZowmvIuUUXPmzHGFK4DnUbgSL+ZrbhDxQmeAE8AtaWlp5Ofn065dO3ONiJRiSUlJjBo1iry8PIAE4DE090q8mAKWlBRbgdZA48TERNq3b0+1atXMNSJSCp0/f55HH33UtXXWeaA/cNyzSsS7aIhQSgoHzqHCNLvdzssvv8zZs2fNNSJSCr3xxhvs27fPdfl3nJvCi3g1BSwpSY4BwwEOHz7sPlwgIqVUfHw8cXFxrstpwKdu3SJeS0OEUtJsAyoBHY4ePcrJkyeJiYnBx0cPxIqUNvv27ePpp58mPz8fYAcwENBTLlIiKGBJSbQYuB5osmvXLgIDA2nZsqW5RkRKsPT0dP7+979z6tQpgHNAL+CoZ5WI91LAkpLIAXwH9AUi1q9fT4MGDahfv76pTERKonPnzvH444+za9cuV9NDOPcnFSkxNK4iJVkNYB1QIyAggI8//pjIyEhzjYiUIDk5OYwYMYL169e7ml4FXnQrESkRNMldSrKjwM1AZk5Ojvkbr4iUMPn5+YwePdo9XL0HvORWIlJiKGBJSbcFuB3ITU9P55FHHnFf6VlESgi73c7YsWNZvny5q2ky2shZSjAFLCkN5uEMWXnp6ek8/PDDClkiJYjD4eCtt95i3rx5rqZvgQcB+29VIiWL5mBJaTIImAn4VaxYkY8++ohGjRqZa0TEi+Tl5TF+/Hj3ta5+AAYA2b9ViZQ8eopQSpOdwHZgcHZ2tu2HH34gKiqKiIgIc52IeIHMzEyefvppli5d6mpaAdwCZP1WJVIyKWBJabMDZ8galJOT47tgwQJq165NgwYNzHUiUoxSUlIYPnw4iYnGrjdfA0NQuJJSQgFLSqPtwCpgoN1uD1yyZAmBgYFERUVpxXcRL7Bnzx4efvhhDh8+7Gp6HXgU0N5XUmooYElplQTEA/2BiuvWreP06dN07NgRm03PdogUl3Xr1vHYY49x+vRpcE5iHw78Cz0tKKWMvs5LaVcd+B5oCXD99dfz2muvERYW5lklIkXKbrczZcoUJk2ahN1uB+f2N3fg/CIkUuooYElZUAH4CugHEBoaymuvvUbr1q09q0SkSJw6dYqXXnrJfQHR4zjvLif8ViVSumiIUMqCHJwTaPOArllZWT7z5s0jICCA6OhozcsSKUJr1qzhscceY9++fa6mH4DewJ7fqkRKHwUsKSscwEpgNXCTw+EIXr9+PTt37qRdu3YEBQWZykXkSuTm5vL+++/zr3/9i/Pnz4PzC87zOCezZ3gUi5RCClhS1uzHOVzYEah16NAh4uLiqFGjBvXr1zeVisjlOHLkCE888QRLlixxNSXhHKKfgSazSxmhgCVlUTowFfAHOmVnZ/ssXryYpKQk2rRpQ2BgoKlcRAoiNzeXyZMn8/zzz3P8+HFX8zc4w9Xe3ypFSj9NPpGyrgPwBdAEoEqVKrzwwgvExMR4FInIpW3atInXXnuNAwcOuJrOAU8D/0F3raQMUsASgSDgVWAEF34nYmJiePrpp6lRo4ZHoYh4+vXXX3n33XeJj/dYbeF74DGcQ4MiZZIClshvYoDPgAYAAQEBDB06lKFDh2rYUMTEbrcTFxfHxIkTSU9PdzUnA48D36K7VlLGKWCJeAoERgKjL5wTERHBU089RWxsrJZ0EME5HPjee+/x888/u5rswPvASzjnOIqUefq0ELm4usAEYJCroVWrVjz22GNERUUZRSJlyY4dO5g0aRJr1651b94IDLvwU0QuUMASubTewESgsauhS5cuDB8+nEaNGv1WJVKKJSUl8eGHH7ovuwBwAvgnzkns+e4dIqKAJVIQAcBDOIc/qgH4+PjQq1cvHn74YWrVquVRLFJaHD9+nI8//pj4+HjX/oEAv+LcnPl9INMoFhEPClgiBVcO5wTeZ4FKADabjT59+nDPPffQsGFDj2KRkurIkSNMnz6dOXPmkJub62o+B7wNvAWcNopF5KIUsEQKrzLOifBPAMGuxk6dOjF06FBatWqlyfBS4jgcDrZs2cKXX37JihUrcDiMhwBzgI+A8TiHBUWkAPQpIHL5quG8ozWcC3e0AJo3b87QoUPp2rUrNpvNKBbxRnl5eSxevJgvv/ySHTt2uHdl49zx4BXgoHuHiPw5BSyRK1cBeBB4EjAmZIWHhzNo0CBuueUWwsPDjWIRb5Cens6cOXOYMWMGKSkp7l2pwAfAh+iOlchlU8ASsY4/cAfOOVrXuRptNhsxMTHceuutdOjQQXe1pNjY7Xa2bNnCd999x6JFizh//rx79w6cS5N8CWS5d4hI4SlgiVjPB+eq8A8Dg3EGLwCqV6/OLbfcQt++falevbqrWaRIJScnEx8fT3x8PMnJyebuxTiD1UKcC4aKiAUUsESKVjhwH86FGOu5d0RFRdGnTx969OhBaGioe5fIFTt37hxLly7lu+++Y+PGP1wD9E2cd1xFxGIKWCJXhw3oCfwfcDPOtbWcHTYbHTp0oE+fPsTGxhIcbDyYKFIoOTk5JCQksGjRIhYvXkxWludIX2BgIEFBQfz666+upieBd9xKRMQiClgiV19lnEOHdwOx7h3+/v60bduWmJgYYmJiNDle/lRGRgarV69m+fLlrF69mnPnznn0+/n5ERwcTFBQEL6+voBzyPACBSyRIqKAJVK8vgdu8vHxcV93yNC8eXNiYmK48cYbadiwodbXEgBSUlJYuXIly5cvJyEhgby8PI9+m81GUFAQwcHB+PsbUwANClgiRU/v1iLFazYwOCAggEqVKnH+/HnOnz9PTk6OuY7w8HDat29Pu3btaNeuHVWqVDGXSCmVm5vL9u3b2bBhAz/++CPbtm0zl+Dj40O5cuUIDAwkIMAYgb4oBSyRoqeAJVK8jIAVFhZmNNrtdiNsZWdnX/TuVv369Wnfvj1t27aldevWlCtXzlwiJVR+fj47d+5kw4YNJCQksGXLFvOSCi4JODdabu/n51fgIWUFLJGi52duEJHiZ7PZCA4OJjg4GIfDQXZ2tnG4hoP279/P/v37+eqrr7DZbDRq1IioqCiioqKIjo4mIiJCQ4olhN1uZ/fu3SQkJJCQkMCmTZt+N5fqgmzgR2AuEAccxrnpcnv3IhEpfgpYIl7Ox8eHwMBAAgMDsdvtHD9+3NW1CmgIXGu329m1axe7du1i1qxZAISGhhIdHU1UVBSRkZE0btxYd7m8gMPhIDk5me3btxvHjh07/ihQ5QE/AcuApRfOL3orS0S8iwKWSMn1ATADaAF0ATpdOOoDpKWlsWzZMpYtW2a8oFatWjRu3JgmTZrQpEkTGjduTFhYmO50FRGHw8GJEyeMEOX6mZ6ebi51seMc9nMFqtVApkeFiJQIClgiJZsD+OXC8eGFtmuBjvwWuFoD1wAcPnyYw4cPs2TJkgulzjtdDRs2pG7dusZRp04dwsPDFbwKKD8/n+TkZA4ePMjBgwdJSkri4MGDHDhwwH3NqYtJxRmoEoB1OIf/znhUiEiJpIAlUvocB+ZcOMAZrloA17sd0UA5cN7pWr9+PevXr79Q7hQUFETt2rWNwFWjRg0iIiKIiIggPDzcWFOprMjJySE1NZWUlBQOHTpkhKmDBw9y+PDh3y2VcBG/8luYSgA2AodwhmQRKWUUsERKv2xg04XDxRdowG+BqwXQFOfwog0gKyvLmNdlZrPZqFatGhEREVSvXp2IiAiuvfZaqlSpYhyVK1e+6BpM3iY3N5ezZ8+SmprKyZMnSUlJ4eTJkx7nKSkpnD592vzSP5ID7AF2XTg24wxTB1CYEikzFLBEyqZ8YPeFY4Zb+zU4g1cTnIHL9bMxzhXoAedTb8eOHePYsWNs2uSe2zxVrFiRKlWqEBYWRmhoKCEhIfj7++Pn54efn59xbv55sX5fX18cDgd5eXnY7Xby8/PJz8/3OHe/zs7OJiMj4w+Ps2fPkpGRcdE1xwoomd9ClPtxEOffr4iUYQpYIuIuG9h+4TALAeoAdS8c7ud1gd+tfHrmzBnOnDnD/v37zV3e7hRw9BLHfuCsUS0iYqKAJSIFlQ78fOG4mCCgGs5J9hc7InCGNH+cm10HmM4vvfx44eXjnDBe0OMYzvCUDHjukiwiUkgKWCJilSwg6cJxOXxwzg0zBy/XuT/O0JR34XA/v9i1HRGRYqKAJSLewsFv4UhEpESzmRtERERE5MooYImIiIhYTAFLRERExGIKWCIiIiIWU8ASERERsZgCloiIiIjFFLBERERELKaAJSIiImIxBSwRERERiylgiYiIiFhMAUtERETEYgpYIiIiIhZTwBIRERGxmAKWiIiIiMUUsEREREQspoAlIiIiYjEFLBERERGLKWCJiIiIWEwBS0RERMRiClgiIiIiFlPAEhEREbGYApaIiIiIxRSwRERERCymgCUiIiJiMQUsEREREYspYImIiIhYTAFLRERExGIKWCIiIiIWU8ASERERsZgCloiIiIjFFLBERERELKaAJSIiImIxBSwRERERiylgiYiIiFhMAUtERETEYgpYIiIiIhZTwBIRERGxmAKWiIiIiMUUsEREREQspoAlIiIiYjEFLBERERGLKWCJiIiIWEwBS0RERMRiClgiIiIiFlPAEhEREbGYApaIiIiIxRSwRERERCymgCUiIiJiMQUsEREREYspYImIiIhYTAFLRERExGIKWCIiIiIWU8ASERERsZgCloiIiIjFFLBERERELKaAJSIiImIxBSwRERERiylgiYiIiFhMAUtERETEYgpYIiIiIhZTwBIRERGxmAKWiIiIiMUUsEREREQspoAlIiIiYjEFLBERERGLKWCJiIiIWEwBS0RERMRiClgiIiIiFlPAEhEREbGYApaIiIiIxRSwRERERCymgCUiIiJiMQUsEREREYspYImIiIhYTAFLRERExGIKWCIiIiIWU8ASERERsZgCloiIiIjFFLBERERELKaAJSIiImIxBSwRERERiylgiYiIiFhMAUtERETEYgpYIiIiIhZTwBIRERGxmAKWiIiIiMUUsEREREQspoAlIiIiYjEFLBERERGLKWCJiIiIWEwBS0RERMRiClgiIiIiFlPAEhEREbGYApaIiIiIxRSwRERERCymgCUiIiJiMQUsEREREYspYImIiIhYTAFLRERExGIKWCIiIiIWU8ASERERsZifuUFErr68vDzy8vLMzb9jt9vNTSIi4oUUsES8gN1uJyUlxdwsIiIllIYIRURERCymO1gixesl4B1zYwHtMjeIiIh3UMASKV47zA0iIlLyaYhQRERExGIKWCIiIiIWU8ASERERsZgCloiIiIjFFLBERERELKaAJSIiImIxBSwRERERiylgiYiIiFhMAUtERETEYgpYIiIiIhZTwBIRERGxmAKWiIiIiMUUsEREREQspoAlIiIiYjEFLBERERGLKWCJiIiIWEwBS0RERMRiClgiIiIiFlPAEhEREbGYApaIiIiIxRSwRERERCzmZ24QEZGSx+FwYLfbzc0iUkwUsERESoH8/HyOHz9ubhaRYqIhQhERERGL+ZgbRESkRGkNNDI3FtBmYJe5UURERERERERERERERERERERERERERERERERERERERERERERERERERERERERERERExHr/D4phHIv99PiOAAAAAElFTkSuQmCC;rotation=90;" vertex="1" parent="1">
          <mxGeometry x="290" y="275" width="60" height="60" as="geometry" />
        </mxCell>
      </root>
    </mxGraphModel>
  </diagram>
</mxfile>
